<?xml version="1.0" encoding="UTF-8" standalone="no"?> <svg xmlns="http://www.w3.org/2000/svg" viewBox="0 0 64 64"><defs><style>.cls-1{fill:#9af43b;}.cls-1,.cls-2,.cls-3,.cls-5,.cls-8{stroke:#54596e;stroke-linecap:round;stroke-linejoin:round;stroke-width:2px;}.cls-2{fill:#bfad88;}.cls-3{fill:#fff35f;}.cls-4,.cls-6{fill:#54596e;}.cls-4{opacity:0.15;}.cls-5{fill:none;}.cls-7{fill:#ff927d;}.cls-8{fill:#f4a14e;}</style></defs><title>forest-day</title><g id="forest-day"><polygon class="cls-1" points="61 50 53.63 40 60 40 51.13 30 57 30 50.25 20 54 20 43.5 1 33 20 36.75 20 30 30 35.87 30 27 40 33.37 40 26 50 61 50"/><rect class="cls-2" x="41" y="50" width="5" height="11"/><circle class="cls-3" cx="20" cy="45" r="16"/><path class="cls-4" d="M20,55A16,16,0,0,1,4.29,42a16,16,0,1,0,31.42,0A16,16,0,0,1,20,55Z"/><path class="cls-5" d="M14.86,48.07A7,7,0,0,0,20,50a7,7,0,0,0,5.1-1.9"/><circle class="cls-6" cx="11" cy="38" r="2"/><circle class="cls-6" cx="29" cy="38" r="2"/><circle class="cls-7" cx="29" cy="44" r="2"/><circle class="cls-7" cx="11" cy="44" r="2"/><line class="cls-5" x1="42" y1="61" x2="61" y2="61"/><circle class="cls-8" cx="15" cy="13" r="7"/><line class="cls-5" x1="15" y1="1" x2="15" y2="3"/><line class="cls-5" x1="15" y1="23" x2="15" y2="25"/><line class="cls-5" x1="3" y1="13" x2="5" y2="13"/><line class="cls-5" x1="25" y1="13" x2="27" y2="13"/><line class="cls-5" x1="6.51" y1="4.51" x2="7.93" y2="5.93"/><line class="cls-5" x1="22.07" y1="20.07" x2="23.49" y2="21.49"/><line class="cls-5" x1="23.49" y1="4.51" x2="22.07" y2="5.93"/><line class="cls-5" x1="7.93" y1="20.07" x2="6.51" y2="21.49"/></g></svg>