<?xml version="1.0" ?><svg style="enable-background:new 0 0 48 48;" version="1.1" viewBox="0 0 48 48" xml:space="preserve" xmlns="http://www.w3.org/2000/svg" xmlns:xlink="http://www.w3.org/1999/xlink"><style type="text/css">
	.st0{display:none;}
	.st1{fill:none;stroke:#303030;stroke-width:0.7;stroke-linecap:round;stroke-linejoin:round;stroke-miterlimit:10;}
	.st2{fill:#303030;}
</style><g class="st0" id="Padding__x26__Artboard"/><g id="Icons"><g><circle class="st1" cx="22.84074" cy="27.72383" r="4.25394"/><circle class="st1" cx="22.84074" cy="27.72383" r="2.80778"/><line class="st1" x1="34.4111" x2="26.61344" y1="25.66228" y2="25.66228"/><line class="st1" x1="19.10707" x2="11.27024" y1="25.66228" y2="25.66228"/><path class="st1" d="M27.66978,19.68801h0.19446h5.87704c0.36732,0,0.66981,0.3025,0.66981,0.66981v5.30446v9.40975    c0,0.37812-0.30249,0.68061-0.68061,0.68061H11.94005c-0.36732,0-0.66981-0.30249-0.66981-0.66981v-9.42056v-5.31527    c0-0.36732,0.29169-0.65901,0.65901-0.65901h5.89865h0.18366l1.35025-2.39621c0.11357-0.20155,0.32696-0.32624,0.5583-0.32624    h5.84113c0.23135,0,0.44473,0.12469,0.5583,0.32624L27.66978,19.68801z"/><line class="st1" x1="34.74919" x2="34.74919" y1="12.24735" y2="16.2085"/><line class="st1" x1="32.76862" x2="36.72976" y1="14.22792" y2="14.22792"/></g></g></svg>